# xmcd
#
# Track frame offsets:
#	150
#	22502
#	39400
#	59362
#	75885
#	92382
#	111232
#	129490
#	147682
#
# Disc length: 2201 seconds
#
# Revision: 3
# Processed by: cddbd v1.5.2PL0 Copyright (c) Steve Scherf et al.
# Submitted via: EasyCDDAExtractor 15.3.0.1
#
DISCID=65089709
DTITLE=Edwin
DYEAR=1999
DGENRE=Latin
TTITLE0=No Puedo Olvidarla
TTITLE1=Asesina De Amor
TTITLE2=No Quiero Verla
TTITLE3=Quien
TTITLE4=Quiereme
TTITLE5=El Rey De Tu Querer
TTITLE6=Me Quedare Llorando
TTITLE7=Del Mismo Nido
TTITLE8=Me Llega Al Alma
EXTD=YEAR: 1999
EXTT0=
EXTT1=
EXTT2=
EXTT3=
EXTT4=
EXTT5=
EXTT6=
EXTT7=
EXTT8=
PLAYORDER=
